<svg width="447" height="374" viewBox="0 0 447 374" fill="none" xmlns="http://www.w3.org/2000/svg">
<path fill-rule="evenodd" clip-rule="evenodd" d="M313.833 0.618631C330.655 0.159952 346.846 9.74364 352.139 26.1132C357.287 42.0349 348.928 58.4602 335.745 68.3898C323.007 77.9853 305.902 79.9656 292.889 70.7437C279.582 61.3134 274.176 43.9522 278.907 28.11C283.657 12.2065 297.602 1.0612 313.833 0.618631Z" fill="#000294"/>
<path fill-rule="evenodd" clip-rule="evenodd" d="M44.4997 41.9349C64.6125 41.3865 83.9714 52.8451 90.2997 72.4171C96.4548 91.4536 86.4603 111.092 70.6992 122.964C55.4684 134.437 35.0168 136.805 19.4584 125.779C3.5482 114.504 -2.9153 93.746 2.7419 74.8045C8.42096 55.7898 25.0934 42.4641 44.4997 41.9349Z" fill="#000294"/>
<path fill-rule="evenodd" clip-rule="evenodd" d="M408.534 244.809C424.785 253.428 434.796 271.68 430.633 290.793C426.584 309.383 409.41 321.187 391.299 323.938C373.797 326.596 356.422 319.336 349.23 303.158C341.876 286.613 346.488 266.455 359.886 253.273C373.335 240.04 392.854 236.493 408.534 244.809Z" fill="#000294"/>
<path fill-rule="evenodd" clip-rule="evenodd" d="M116.12 287.111C130.641 294.812 139.586 311.121 135.866 328.199C132.248 344.81 116.902 355.357 100.72 357.815C85.0818 360.19 69.5565 353.703 63.1304 339.247C56.559 324.464 60.6804 306.452 72.6515 294.674C84.6689 282.85 102.109 279.681 116.12 287.111Z" fill="#000294"/>
<path d="M286.233 36.5677C294.233 6.71134 308.9 3.68203 319.233 10.0989C329.567 16.5158 361.149 28.8661 335.631 43.5989C303.733 62.015 295.233 70.599 286.233 90.5989C282.493 98.9121 278.68 112.354 275.482 125.526C282.557 133.592 288.234 143.016 292.033 153.645C303.051 147.075 316.015 136.668 322.733 122.963C332.733 102.564 349.798 110.848 353.233 119.963C357.567 131.463 361.333 155.663 341.733 160.463C327.996 163.827 309.69 166.731 295.837 168.627C296.97 176.099 296.99 183.55 296.042 190.866C298.772 191.563 301.586 192.319 304.455 193.139C328.451 199.995 356.451 211.276 372.108 228.978C379.136 236.924 385.023 244.815 389.152 250.718C391.217 253.67 392.844 256.126 393.954 257.845C394.509 258.704 394.935 259.38 395.223 259.841C395.366 260.071 395.476 260.248 395.55 260.367C395.586 260.427 395.614 260.473 395.633 260.503C395.642 260.518 395.649 260.53 395.653 260.537C395.656 260.541 395.658 260.544 395.659 260.546C395.66 260.547 395.66 260.549 395.66 260.549H395.661V260.55L395.755 260.704L395.728 260.883L391.228 290.883L391.141 291.464L390.581 291.285L378.081 287.285L377.881 287.221L377.787 287.033C377.787 287.033 377.786 287.032 377.785 287.031C377.784 287.029 377.783 287.025 377.781 287.022C377.777 287.014 377.771 287.002 377.763 286.987C377.747 286.955 377.724 286.908 377.692 286.847C377.63 286.724 377.537 286.541 377.416 286.306C377.174 285.835 376.821 285.152 376.375 284.302C375.482 282.603 374.217 280.239 372.729 277.582C369.751 272.262 365.889 265.788 362.335 261.112C348.207 242.525 335.742 232.639 316.505 222.753C308.727 218.756 298.086 216.861 288.89 215.982C281.101 233.542 268.042 249.291 252.167 261.249C250.511 262.496 248.825 263.69 247.113 264.832C251.513 277.534 258.123 290.689 269.233 295.809C289.867 305.317 292.264 334.657 283.233 338.309C271.841 342.916 254.002 347.788 248.733 328.309C245.567 316.6 239.775 292.014 235.305 271.664C222.079 278.216 207.795 281.803 193.612 281.934C183.902 299.816 166.43 317.937 143.233 324.153C105.634 334.227 81.567 334.121 74.2334 332.809V297.809C74.3356 297.825 113.233 303.809 134.233 297.809C147.597 293.991 159.548 287.829 168.869 278.458C160.781 276.02 152.968 272.267 145.674 267.098C112.608 243.665 99.1743 200.525 110.932 161.158C114.815 148.157 121.171 136.436 129.389 126.52C122.874 122.015 116.023 118.828 108.233 114.809C97.5803 109.312 90.2209 108.318 78.2334 108.309C63.7197 108.297 45.3003 108.309 45.2334 108.309L42.2334 95.8089L49.7334 83.3089C49.8129 83.2964 79.9213 78.5916 104.233 83.3089C120.993 86.5609 137.378 97.8222 149.567 108.265C163.582 98.8751 180.108 93.3261 197.717 92.846C216.25 92.3406 234.475 96.7415 250.169 105.342C264.598 84.0834 280.799 56.8473 286.233 36.5677Z" fill="url(#paint0_radial_1_21)"/>
<defs>
<radialGradient id="paint0_radial_1_21" cx="0" cy="0" r="1" gradientUnits="userSpaceOnUse" gradientTransform="translate(207 188.5) rotate(86.2847) scale(115.743 122.092)">
<stop stop-color="#6E6E94"/>
<stop offset="1" stop-color="#000294"/>
</radialGradient>
</defs>
</svg>
